PathFileType	4	(X/Y/Z)	pose_F01_0-89.trc
DataRate	CameraRate	NumFrames	NumMarkers	Units	OrigDataRate	OrigDataStartFrame	OrigNumFrames
30	30	7	21	m	30	25	89
Frame#	Time	CHip			RHip			RKnee			RAnkle			RBigToe			RSmallToe			RHeel			LHip			LKnee			LAnkle			LBigToe			LSmallToe			LHeel			Neck			Nose			RShoulder			RElbow			RWrist			LShoulder			LElbow			LWrist			
		X1	Y1	Z1	X2	Y2	Z2	X3	Y3	Z3	X4	Y4	Z4	X5	Y5	Z5	X6	Y6	Z6	X7	Y7	Z7	X8	Y8	Z8	X9	Y9	Z9	X10	Y10	Z10	X11	Y11	Z11	X12	Y12	Z12	X13	Y13	Z13	X14	Y14	Z14	X15	Y15	Z15	X16	Y16	Z16	X17	Y17	Z17	X18	Y18	Z18	X19	Y19	Z19	X20	Y20	Z20	X21	Y21	Z21	
25	0.8333333333333334	-0.21359744061511277	1.8699450210151234	-0.557348513724282	-0.2277895084556527	1.867269359364518	-0.49397771290813425	-0.2204059127849025	1.7119832401471793	-0.4741328551895765													-0.19534141630204388	1.8716261493215083	-0.6194130719827419	-0.1999081460268523	1.7118765179326263	-0.6059446091405268	-0.2065815594319867	1.5551763139617594	-0.6082984992090037	-0.24207186566140335	1.5149335448414272	-0.648322145154816	-0.22416896037022513	1.5187541022866202	-0.6664140575444766	-0.20065316926260776	1.5428827579813433	-0.5874004082616413	-0.22967315769733843	2.0411235868149733	-0.6045276900497635	-0.27466750166921217	2.09362166615781	-0.6624506905672906	-0.2583996904908521	2.0406068803473176	-0.5291577879766615	-0.24079894479242733	1.948456364285814	-0.4772359490794128	-0.24835318186860042	1.8646255681045378	-0.4523453914946264	-0.2029865209009253	2.0437266333822937	-0.6862550635001958	-1.1748090353181369	1.8889015444964419	0.22446245109403223	-0.2972776021319899	1.9551901926498962	-0.7815594278877604
26	0.8666666666666667	-0.21415163272609153	1.8708997269902363	-0.5605660107419727	-0.22837260275038154	1.8686286688209375	-0.49737335849376335	-0.22055410719485954	1.706710621832935	-0.4734235949211276													-0.19702021264621467	1.8721888480748752	-0.6173641925598452	-0.2005130324567613	1.7121015910350055	-0.6096308511088087	-0.2065997156173707	1.5553896112271564	-0.6082924683980325	-0.24394230561456853	1.516314354269887	-0.646727735727392	-0.2261106100904249	1.5201769099841582	-0.6647894893324836	-0.20070313596759323	1.5433137020311682	-0.5873445462367136	-0.22857294906402256	2.043438514029414	-0.6017798459134204	-0.2705977798715888	2.0995325810008554	-0.6596755056202874	-0.2543603370056981	2.0400470850785912	-0.5167028102603463	-0.24293502146616633	1.9471217459932881	-0.4748051610551743	-0.2506070851666536	1.8661885893859027	-0.4547763905193272	-0.19967589319174459	2.0471514137136397	-0.6752176050300773	-0.19532589368250652	1.984382770275707	-0.7587013137725865	-0.9651678717036515	1.8900308287419034	-0.10650394197705178
27	0.9	-0.2144548498200145	1.8752634275454065	-0.5644320903822152	-0.2308068721869805	1.8749287263691277	-0.5079021993754609	-0.221473524711749	1.7159144028707378	-0.473628000007108													-0.19640622545254535	1.876532696924638	-0.6181355552017663	-0.2013581043503787	1.714872449233544	-0.613316635559793	-0.20682315012848285	1.5538062760056386	-0.6077577737100176	-0.246404896464456	1.5147241764582118	-0.6439114767353512	-0.22657000629274643	1.5198880392513077	-0.6638357631807159	-0.1987786485161355	1.5415252981663956	-0.5889953114443667	-0.22558373697260065	2.0450668977682955	-0.6007643971046354	-0.26717250681773774	2.10625374434143	-0.6597978502095497	-0.251478266766931	2.045062582869533	-0.5172153251748426	-0.2429011907440428	1.952090073758023	-0.4755588301070181	-0.2509294575669365	1.8784187829648142	-0.4484376384883678	-0.19602326687509317	2.0481504389701537	-0.6717300689841735	-0.19052809982477303	1.9940557000364727	-0.7640058968405575	-0.2780506593442054	1.9849156654649105	-0.7746522470447893
28	0.9333333333333333	-0.21676141956782155	1.8757773877702928	-0.5623840931610823	-0.23295727266382213	1.8732724716922995	-0.505754882444474	-0.2229881287790468	1.7143070814527834	-0.4761390637476987													-0.1974250222367088	1.8789862660083672	-0.6212690260847887	-0.2051851768033876	1.716851404326488	-0.6179591548619064	-0.20617395433667343	1.5562913075006297	-0.6090223567300341	-0.2440448312861529	1.513627471342436	-0.6465130659994485	-0.2263258427396817	1.5186139645873167	-0.6642650237459781	-0.19994846008649012	1.5452476285992742	-0.5886744057569262	-0.2255921880939728	2.0456429934801736	-0.5922663555374283	-0.2605147485743068	2.107714457587693	-0.6473080114123193	-0.25237402480915594	2.044725879991404	-0.5118360213471813	-0.24582912577972613	1.9503070388829995	-0.4675054382573793	-0.2544844371487019	1.8678087249553597	-0.4508661552939959	-0.19795935462151082	2.048737570740684	-0.6692696567363738	-0.18553374110065585	2.004541337959937	-0.7690056007786346	-0.2619149725963407	2.0042673926260717	-0.7780088386528454
29	0.9666666666666667	-0.21786943296195568	1.881092598323657	-0.5663013995993961	-0.2340537322544961	1.8766456250177996	-0.5096033003251962	-0.2228871189458658	1.7162545069139865	-0.47655065115207945													-0.1976199992868847	1.884445937811281	-0.6221512572652504	-0.2057718836119933	1.7123373966530442	-0.6168135387871846	-0.20628896930637405	1.5566532300984899	-0.6088478753279954	-0.24319963678636972	1.5148135830445757	-0.6428490380857873	-0.22561879383429495	1.5201005608363114	-0.6606571317940894	-0.1991934171338816	1.5459229508330237	-0.5854293181070517	-0.2229101601045945	2.048836802445357	-0.583776978663307	-0.258327736941098	2.113647727119992	-0.6417424631961943	-0.2514076424697041	2.0483817267672833	-0.5095315558323774	-0.24567671830929377	1.951613918268926	-0.4675574167126103	-0.2546426573679021	1.8685570713262216	-0.4511507941019915	-0.19703568430369672	2.0524777228915765	-0.666388274800909	-0.18670419716057005	2.009798241564939	-0.7644619158203181	-0.24577928584847603	2.023619119787233	-0.7813654302609017
30	1.0	-0.218543440308891	1.871672451785441	-0.5651949344601048	-0.23558072918332515	1.8695616884539752	-0.5118264851608081	-0.22430251652319158	1.7102635714427254	-0.4787447943181879													-0.19827212456461152	1.8751094677349571	-0.6210900647117124	-0.20571179370206974	1.7115481311762308	-0.6168750854565603	-0.2063241720607736	1.5567456412365208	-0.6090209677612582	-0.24599465658769856	1.5135501047817916	-0.6530436117178205	-0.22821922026517855	1.518415292964278	-0.6707108396308075	-0.20008126203083018	1.542342927939359	-0.5886892681670609	-0.22830504460990814	2.0465802045544197	-0.5740369887005737	-0.25395807581293844	2.1235026585341763	-0.6391375967360011	-0.25156956138903513	2.0443748043664027	-0.500689563901281	-0.24802564970212657	1.947772891281674	-0.46526524784432977	-0.25802492685162776	1.8676968681379422	-0.4522323453155337	-0.2049072483386126	2.0509862438756383	-0.654798702014169	-0.18623731898499876	2.016024529681961	-0.7637867084645642	-0.24455854272136734	2.040559803441093	-0.7680138815477927
31	1.0333333333333334	-0.2190502956674842	1.8729412125037215	-0.568519039496464	-0.23541526449588013	1.869545407117746	-0.5119867143877609	-0.2245006412719185	1.7103877090888173	-0.4830596408018217													-0.19867674549150402	1.876716817023761	-0.6243762610802968	-0.2055458634902198	1.7101055554999636	-0.6169764825385767	-0.20657052687160574	1.555124433292599	-0.6083610341888661	-0.2440143271953191	1.5135673333995638	-0.6465380895048656	-0.22631372245486572	1.5186247183676385	-0.664269467152816	-0.20042012354726169	1.5416801157332665	-0.5877354101287503	-0.22739478834400514	2.047760195233716	-0.5713513975927459	-0.2496476854034552	2.123709544117793	-0.6244251459410237	-0.25046893108522944	2.04261908725937	-0.48864282554936717	-0.24995013431911417	1.947760287803468	-0.46304662834504295	-0.25804067007963466	1.8660234956195874	-0.45202531211122665	-0.199241474519262	2.0546617218017076	-0.6454500500114313	-0.18577044080942748	2.0222508177989833	-0.7631115011088102	-0.24333779959425866	2.057500487094953	-0.7546623328346838
